# xmcd CD database file
#
# Track frame offsets:
#	150
#	20302
#	38752
#
# Disc length: 782 seconds
#
# Revision: 0
# Processed by: cddbd v1.5PL3 Copyright (c) Steve Scherf et al.
# Submitted via: CDex 1.40Release
#
DISCID=17030c03
DTITLE=堂埜陽子 - ワイルド！！
DYEAR=1900
DGENRE=Pop
TTITLE0=ワイルド！！
TTITLE1=好き・ズキ・KISS！
TTITLE2=ワイルド！！（オリジナルカラオケ）
EXTD=
EXTT0=
EXTT1=
EXTT2=
PLAYORDER=
